<svg xmlns="http://www.w3.org/2000/svg" viewBox="0 0 512 512">
  <rect width="512" height="512" rx="100" fill="#1e293b"/>
  <path d="M256 160c-53 0-96 43-96 96s43 96 96 96 96-43 96-96-43-96-96-96zm0 152c-30.9 0-56-25.1-56-56s25.1-56 56-56 56 25.1 56 56-25.1 56-56 56z" fill="#3b82f6"/>
  <circle cx="256" cy="256" r="32" fill="#3b82f6"/>
  <path d="M384 128H320l-16-32H208l-16 32H128c-17.7 0-32 14.3-32 32v192c0 17.7 14.3 32 32 32h256c17.7 0 32-14.3 32-32V160c0-17.7-14.3-32-32-32zm0 224H128V160h256v192z" fill="#cbd5e1"/>
</svg>
